<?xml version="1.0" encoding="utf-8"?>
<!-- Generator: Adobe Illustrator 26.2.1, SVG Export Plug-In . SVG Version: 6.00 Build 0)  -->
<svg version="1.1" id="Ebene_1" xmlns="http://www.w3.org/2000/svg" xmlns:xlink="http://www.w3.org/1999/xlink" x="0px" y="0px"
	 viewBox="0 0 219 40" style="enable-background:new 0 0 219 40;" xml:space="preserve">
<style type="text/css">
	.st0{fill:#FFFFFF;}
</style>
<path class="st0" d="M56.8,29.1V22l-5.9-10.3l2.4-0.9l4.7,8.7l4.8-8.2h2.7L59.4,22l0,7.1H56.8z"/>
<path class="st0" d="M73.4,29.1V11.2H76v17.8H73.4z"/>
<path class="st0" d="M85.9,29.1V11.2h10l0.3,1.9h-7.9V19h6.1l0.3,1.9h-6.4v6.1h8.5l0.3,2H85.9z"/>
<path class="st0" d="M116.3,29.1h-10.9V11.2h2.5v15.9h8.1L116.3,29.1z"/>
<path class="st0" d="M130.5,29.1h-6.3V11.2h6.4c2.6,0,4.6,0.8,6,2.4c1.3,1.6,2,3.7,2,6.4c0,1.7-0.3,3.3-0.9,4.7
	c-0.6,1.4-1.5,2.4-2.8,3.2C133.6,28.7,132.2,29.1,130.5,29.1z M130.7,13.4h-4V27h3.8c1.7,0,3-0.6,4-1.8c1-1.2,1.5-2.9,1.5-5.1
	c0-2.1-0.4-3.7-1.3-4.9C133.8,14,132.5,13.4,130.7,13.4z"/>
<path class="st0" d="M146.2,28.1l0.6-2c0.6,0.3,1.3,0.6,2.1,0.8c0.8,0.2,1.6,0.3,2.3,0.3c1.2,0,2.2-0.2,2.9-0.7c0.7-0.5,1-1.1,1-1.9
	c0-0.6-0.2-1.1-0.5-1.5c-0.3-0.4-0.8-0.8-1.5-1.2c-0.6-0.4-1.5-0.8-2.6-1.3c-1.1-0.5-2-1-2.6-1.4c-0.7-0.5-1.2-1-1.5-1.6
	c-0.3-0.6-0.5-1.4-0.5-2.2c0-0.9,0.2-1.7,0.7-2.4c0.5-0.7,1.2-1.3,2-1.7c0.9-0.4,1.9-0.6,3.1-0.6c0.8,0,1.6,0.1,2.5,0.3
	c0.8,0.2,1.6,0.5,2.2,0.8l-0.8,2c-0.6-0.3-1.2-0.5-1.7-0.7c-0.6-0.2-1.2-0.2-2-0.2c-1,0-1.9,0.2-2.5,0.6c-0.6,0.4-1,1-1,1.7
	c0,0.6,0.2,1.1,0.5,1.5c0.3,0.4,0.8,0.8,1.4,1.2c0.6,0.4,1.5,0.8,2.7,1.3c1.6,0.7,2.8,1.5,3.5,2.2c0.7,0.8,1.1,1.8,1.1,3
	c0,0.9-0.3,1.8-0.8,2.5c-0.5,0.7-1.2,1.3-2.2,1.7c-1,0.4-2.1,0.6-3.5,0.6c-0.8,0-1.7-0.1-2.8-0.4C147.3,28.7,146.6,28.4,146.2,28.1z
	"/>
<path class="st0" d="M178.4,13.2h-6.1v15.8h-2.5V13.2h-5.8v-2h14.1L178.4,13.2z"/>
<path class="st0" d="M186.3,29.1V11.2h10l0.3,1.9h-7.9V19h6.1l0.3,1.9h-6.4v6.1h8.5l0.3,2H186.3z"/>
<path class="st0" d="M205.8,11.2h5.1c2,0,3.6,0.4,4.9,1.3c1.2,0.9,1.9,2.2,1.9,4c0,1.1-0.3,2.1-0.9,2.9c-0.6,0.8-1.3,1.4-2.3,1.8
	l4.5,7.9h-2.7l-4-7.2c-0.3,0.1-0.8,0.1-1.7,0.1h-2.3v7.1h-2.5V11.2z M210.9,13.4h-2.6v6.5h2.4c1.3,0,2.3-0.3,3.1-0.8
	c0.8-0.5,1.2-1.3,1.2-2.5c0-1.2-0.4-2-1.1-2.5C213.2,13.6,212.2,13.4,210.9,13.4z"/>
<path class="st0" d="M15.5,14.9l-1.2,6.7l-1.2-6.7L0,5.4V24l14.3,10.9l14.3-10.6v-19L15.5,14.9z M14.3,28.3l2.2-12.8l10-7.3
	L14.3,32.9L2.1,8.3l10,7.2L14.3,28.3z M1.2,9l11.5,23.2L1.2,23.4V9z M15.8,32.4L27.5,8.9v14.8L15.8,32.4z"/>
</svg>
